<!DOCTYPE svg PUBLIC "-//W3C//DTD SVG 1.1//EN" "http://www.w3.org/Graphics/SVG/1.1/DTD/svg11.dtd">
<!-- Uploaded to: SVG Repo, www.svgrepo.com, Transformed by: SVG Repo Mixer Tools -->
<svg height="800px" width="800px" version="1.1" id="Layer_1" xmlns="http://www.w3.org/2000/svg" xmlns:xlink="http://www.w3.org/1999/xlink" viewBox="-51.2 -51.2 614.40 614.40" xml:space="preserve" fill="#000000">
<g id="SVGRepo_bgCarrier" stroke-width="0">
<rect x="-51.2" y="-51.2" width="614.40" height="614.40" rx="307.2" fill="#c1e5f0" strokewidth="0"/>
</g>
<g id="SVGRepo_tracerCarrier" stroke-linecap="round" stroke-linejoin="round"/>
<g id="SVGRepo_iconCarrier"> <path style="fill:#B6BBDB;" d="M387.482,204.345h-38.985c-8.904,0-16.122-7.219-16.122-16.122s7.219-16.122,16.122-16.122h38.985 c5.41,0,9.811-4.401,9.811-9.811s-4.401-9.811-9.811-9.811h-23.366c-16.763,0-31.902-9.935-38.581-25.312 c-0.006-0.013-0.012-0.025-0.017-0.038c-2.295-5.297-3.459-10.918-3.459-16.706v-7.263c0-8.527,6.639-15.579,15.151-16.093 c8.501-0.514,15.951,5.688,16.977,14.152l1.779,14.668c1.803,2.686,4.841,4.347,8.149,4.347h23.366 c23.19,0,42.056,18.867,42.056,42.056S410.671,204.345,387.482,204.345z"/> <path style="fill:#9FA3BF;" d="M387.482,204.345c4.814,0,9.436-0.824,13.747-2.319l-12.884-29.97 c-0.285,0.025-0.572,0.044-0.863,0.044h-38.985c-8.904,0-16.122,7.219-16.122,16.122s7.219,16.122,16.122,16.122H387.482z"/> <path style="fill:#FF6465;" d="M423.4,321.635l-60.092-139.779c-0.029-0.067-0.066-0.127-0.095-0.193 c-0.095-0.213-0.186-0.427-0.29-0.637c-0.073-0.145-0.155-0.284-0.232-0.427c-0.067-0.126-0.133-0.25-0.203-0.374 c-0.229-0.4-0.468-0.791-0.727-1.166c-0.069-0.1-0.145-0.193-0.216-0.291c-0.202-0.279-0.412-0.551-0.63-0.815 c-0.117-0.142-0.236-0.282-0.358-0.418c-0.212-0.239-0.43-0.469-0.655-0.693c-0.104-0.104-0.204-0.214-0.312-0.316 c-0.307-0.291-0.628-0.565-0.956-0.831c-0.134-0.109-0.272-0.212-0.408-0.315c-0.247-0.187-0.499-0.367-0.757-0.538 c-0.127-0.085-0.25-0.172-0.379-0.253c-0.372-0.234-0.751-0.455-1.141-0.658c-0.1-0.053-0.203-0.098-0.305-0.148 c-0.317-0.157-0.64-0.304-0.967-0.441c-0.132-0.055-0.266-0.11-0.399-0.161c-0.362-0.14-0.73-0.267-1.103-0.379 c-0.071-0.021-0.14-0.048-0.212-0.069c-0.423-0.123-0.853-0.222-1.289-0.31c-0.161-0.032-0.325-0.059-0.487-0.086 c-0.291-0.049-0.584-0.09-0.879-0.124c-0.182-0.02-0.363-0.043-0.546-0.058c-0.392-0.031-0.787-0.048-1.183-0.051 c-0.091,0-0.183-0.004-0.275-0.003H206.104l-14.281-41.044c-2.927-8.408-12.113-12.853-20.526-9.928 c-8.41,2.927-12.854,12.116-9.928,20.526l10.595,30.446h-25.747c-7.003,0-13.204,4.521-15.349,11.186l-44.956,139.78 c-1.578,4.904-0.716,10.269,2.319,14.433c3.035,4.164,7.877,6.626,13.029,6.626h141.912c0.037,0,0.072,0.004,0.107,0.004 c0.572,0,1.148-0.043,1.724-0.105c0.123-0.013,0.243-0.03,0.365-0.046c0.466-0.061,0.932-0.143,1.398-0.247 c0.109-0.024,0.219-0.043,0.328-0.069c0.497-0.121,0.992-0.261,1.484-0.432c0.037-0.013,0.07-0.03,0.105-0.043 c0.176-0.062,0.345-0.142,0.519-0.211c0.38-0.15,0.757-0.304,1.119-0.48c0.172-0.084,0.337-0.178,0.506-0.268 c0.359-0.19,0.712-0.388,1.051-0.602c0.156-0.098,0.306-0.201,0.459-0.305c0.345-0.234,0.678-0.479,1.001-0.737 c0.135-0.109,0.271-0.217,0.403-0.33c0.337-0.288,0.658-0.59,0.968-0.903c0.103-0.104,0.21-0.202,0.311-0.31 c0.421-0.449,0.822-0.916,1.188-1.408l88.452-117.508l49.115,114.245c2.624,6.105,8.571,9.758,14.819,9.758 c2.125,0,4.284-0.423,6.361-1.316C423.137,339.297,426.917,329.815,423.4,321.635z M157.966,204.345h25.216L220.6,311.879h-97.219 L157.966,204.345z M248.576,294.161l-31.252-89.814h98.858L248.576,294.161z"/> <g> <path style="fill:#494A59;" d="M225.759,152.478h-82.768c-18.304,0-33.196-14.892-33.196-33.196 c0-8.904,7.219-16.122,16.122-16.122s16.122,7.219,16.122,16.122c0,0.525,0.427,0.951,0.951,0.951h82.768 c8.904,0,16.122,7.219,16.122,16.122S234.663,152.478,225.759,152.478z"/> <path style="fill:#494A59;" d="M96.961,424.964C43.496,424.964,0,381.466,0,328.002s43.496-96.961,96.961-96.961 s96.961,43.496,96.961,96.961S150.425,424.964,96.961,424.964z M96.961,263.286c-35.684,0-64.716,29.031-64.716,64.716 s29.031,64.717,64.716,64.717s64.716-29.032,64.716-64.717S132.645,263.286,96.961,263.286z"/> <path style="fill:#494A59;" d="M415.039,424.964c-53.464,0-96.962-43.497-96.962-96.962s43.497-96.961,96.962-96.961 S512,274.538,512,328.002S468.504,424.964,415.039,424.964z M415.039,263.286c-35.684,0-64.717,29.031-64.717,64.716 s29.032,64.717,64.717,64.717s64.716-29.032,64.716-64.717S450.724,263.286,415.039,263.286z"/> </g> </g>
</svg>