<!DOCTYPE svg PUBLIC "-//W3C//DTD SVG 1.1//EN" "http://www.w3.org/Graphics/SVG/1.1/DTD/svg11.dtd">
<!-- Uploaded to: SVG Repo, www.svgrepo.com, Transformed by: SVG Repo Mixer Tools -->
<svg width="800px" height="800px" viewBox="-174.08 -174.08 1372.16 1372.16" class="icon" version="1.1" xmlns="http://www.w3.org/2000/svg" fill="#000000">
<g id="SVGRepo_bgCarrier" stroke-width="0">
<rect x="-174.08" y="-174.08" width="1372.16" height="1372.16" rx="686.08" fill="#7e86ec" strokewidth="0"/>
</g>
<g id="SVGRepo_tracerCarrier" stroke-linecap="round" stroke-linejoin="round"/>
<g id="SVGRepo_iconCarrier">
<path d="M941.464276 569.908701c78.164278 146.32225 72.729543 301.691736-12.116262 347.023821-80.721801 43.094252-204.186195-28.868034-283.341513-161.891168-42.231089 7.225001-88.266492 11.22113-136.44382 11.221129-48.209297 0-94.2447-3.996129-136.475789-11.221129-79.123349 133.023134-202.619712 204.98542-283.341513 161.891168-84.845806-45.332085-90.280541-200.70157-12.116262-347.023821 78.164278-146.354219 210.324248-228.226905 295.202023-182.894821 23.944803 12.819581 41.559739 34.398676 52.780868 62.051888 26.981861-2.685399 55.082639-4.124005 83.950673-4.124005s56.968811 1.438606 83.950673 4.124005c11.189161-27.653211 28.804096-49.232306 52.780868-62.051888 84.845806-45.332085 217.005776 36.540601 295.170054 182.894821z m-58.279541 27.429428c0-21.930755-17.80675-39.705535-39.705535-39.705536-21.930755 0-39.705535 17.774781-39.705536 39.705536s17.774781 39.705535 39.705536 39.705535c21.898786 0 39.705535-17.774781 39.705535-39.705535z m-159.84515 0c0-21.930755-17.80675-39.705535-39.705535-39.705536-21.930755 0-39.705535 17.774781-39.705536 39.705536s17.774781 39.705535 39.705536 39.705535c21.898786 0 39.705535-17.774781 39.705535-39.705535z m-359.140083 32.96007v-67.966158h-71.834411v-71.86638h-67.998126v71.86638h-71.834411v67.966158h71.834411v71.866379h67.998126v-71.866379h71.834411z" fill="#FFB578"/>
<path d="M843.4792 557.632593c21.898786 0 39.705535 17.774781 39.705535 39.705536s-17.80675 39.705535-39.705535 39.705535c-21.930755 0-39.705535-17.774781-39.705536-39.705535s17.774781-39.705535 39.705536-39.705536z" fill="#5FCEFF"/>
<path d="M683.63405 557.632593c21.898786 0 39.705535 17.774781 39.705535 39.705536s-17.80675 39.705535-39.705535 39.705535c-21.930755 0-39.705535-17.774781-39.705536-39.705535s17.774781-39.705535 39.705536-39.705536z" fill="#FF4893"/>
<path d="M364.199502 562.332041v67.966158h-71.834411v71.866379h-67.998126v-71.866379h-71.834411v-67.966158h71.834411v-71.86638h67.998126v71.86638z" fill="#8B87C1"/>
<path d="M877.53261 951.797946h-0.00959c-82.000562-0.006394-176.08222-67.166932-242.744042-172.287497-40.255403 6.061328-82.301071 9.127158-125.2131 9.127158-42.93121 0-84.986469-3.069027-125.245069-9.127158-66.639443 105.126958-160.721101 172.287496-242.744041 172.287497-22.58612 0-43.570591-5.08947-62.368381-15.124548C30.832851 910.826437 2.773633 855.922825 0.193732 782.074365c-2.426449-69.427142 18.062502-148.518523 57.694509-222.70905 66.19827-123.947126 171.926246-207.226449 263.089132-207.22645 22.59571 0 43.589772 5.092666 62.393956 15.134139 23.31821 12.487103 42.416509 32.394218 55.897849 58.097319a885.248016 885.248016 0 0 1 140.567825 0c13.468552-25.706297 32.570048-45.613412 55.901046-58.087728 18.80738-10.047866 39.795049-15.140533 62.390759-15.140533 91.153295 0 196.874877 83.276126 263.073148 207.22645 39.62881 74.190528 60.120958 153.281908 57.694508 222.70905-2.579901 73.851656-30.635921 128.752071-79.005064 154.592639-18.79779 10.038275-39.782261 15.127745-62.35879 15.127745z m-231.516518-219.134913a22.378321 22.378321 0 0 1 19.226175 10.936605c58.16765 97.7549 143.480204 163.435272 212.283949 163.441666h0.006394c15.146926 0 29.03747-3.315188 41.278412-9.849658 72.579289-38.778433 73.918791-183.828316 2.918772-316.739559-57.723281-108.074503-149.666211-183.55658-223.594592-183.55658-15.159714 0-29.050258 3.315188-41.2912 9.856052-18.679504 9.990322-33.008023 27.048996-42.579551 50.709276a22.365533 22.365533 0 0 1-22.963354 13.874559c-53.538535-5.329237-109.941494-5.329237-163.470438 0a22.384715 22.384715 0 0 1-22.950567-13.852181c-9.603497-23.673067-23.941607-40.744529-42.608323-50.738047-12.228154-6.528076-26.125091-9.846461-41.288002-9.846462-73.937973 0-165.890494 75.47888-223.613774 183.55658-70.996822 132.911242-69.660516 277.961125 2.925166 316.742755 12.234548 6.531273 26.128288 9.846461 41.284805 9.846462 68.822928 0 154.132284-65.683569 212.280753-163.438469a22.339958 22.339958 0 0 1 23.004914-10.616915c42.282239 7.231395 86.926989 10.898242 132.703444 10.898242 45.754076 0 90.389235-3.666848 132.671474-10.898242 1.256383-0.223783 2.522356-0.326084 3.775543-0.326084z" fill="#4F46A3"/>
<path d="M292.368288 724.542899h-67.998127a22.378321 22.378321 0 0 1-22.378321-22.378321V652.679717h-49.456089a22.378321 22.378321 0 0 1-22.378321-22.378321v-67.969355a22.378321 22.378321 0 0 1 22.378321-22.378321h49.456089V490.468858a22.378321 22.378321 0 0 1 22.378321-22.378321h67.998127a22.378321 22.378321 0 0 1 22.378321 22.378321v49.484862h49.45609a22.378321 22.378321 0 0 1 22.378321 22.378321v67.969355a22.378321 22.378321 0 0 1-22.378321 22.378321h-49.45609v49.484861a22.378321 22.378321 0 0 1-22.378321 22.378321z m-45.623002-44.756642h23.241484V630.301396a22.378321 22.378321 0 0 1 22.378321-22.378321h49.45609v-23.212713h-49.45609a22.378321 22.378321 0 0 1-22.378321-22.378321V512.847179h-23.241484v49.484862a22.378321 22.378321 0 0 1-22.378321 22.378321h-49.45609v23.212713h49.45609a22.378321 22.378321 0 0 1 22.378321 22.378321v49.484861zM683.63405 659.421985c-34.232437 0-62.083856-27.851419-62.083857-62.083856s27.851419-62.083856 62.083857-62.083857 62.083856 27.851419 62.083856 62.083857-27.851419 62.083856-62.083856 62.083856z m0-79.411071c-9.552346 0-17.327214 7.774868-17.327215 17.327215s7.774868 17.327214 17.327215 17.327214 17.327214-7.774868 17.327214-17.327214-7.774868-17.327214-17.327214-17.327215zM843.4792 659.421985c-34.232437 0-62.083856-27.851419-62.083857-62.083856s27.851419-62.083856 62.083857-62.083857 62.083856 27.851419 62.083856 62.083857-27.851419 62.083856-62.083856 62.083856z m0-79.411071c-9.552346 0-17.327214 7.774868-17.327215 17.327215s7.774868 17.327214 17.327215 17.327214 17.327214-7.774868 17.327214-17.327214-7.774868-17.327214-17.327214-17.327215zM509.562681 445.069639a22.378321 22.378321 0 0 1-22.378321-22.378321c0-95.117455 77.387431-172.504886 172.501689-172.504886h165.823359a22.378321 22.378321 0 1 1 0 44.756642h-165.823359c-70.440561 0-127.748244 57.307683-127.748244 127.748244a22.371927 22.371927 0 0 1-22.375124 22.378321z" fill="#4F46A3"/>
<path d="M819.118799 294.687322a22.378321 22.378321 0 1 1 0-44.756642c33.784871 0 60.6964-7.196229 77.828603-20.811839 14.037601-11.13801 21.147513-26.077138 21.147514-44.404983 0-40.837239-37.000955-65.216821-98.976117-65.216821h-389.606569a22.378321 22.378321 0 1 1 0-44.756642h389.606569c106.092423 0 143.732759 59.241809 143.732759 109.973463 0 31.754838-13.519703 59.970703-38.068721 79.455828-25.47612 20.245987-61.028878 30.517636-105.664038 30.517636z" fill="#4F46A3"/>
</g>
</svg>