<!DOCTYPE svg PUBLIC "-//W3C//DTD SVG 1.1//EN" "http://www.w3.org/Graphics/SVG/1.1/DTD/svg11.dtd">
<!-- Uploaded to: SVG Repo, www.svgrepo.com, Transformed by: SVG Repo Mixer Tools -->
<svg version="1.1" id="Layer_1" xmlns="http://www.w3.org/2000/svg" xmlns:xlink="http://www.w3.org/1999/xlink" viewBox="0 0 512 512" xml:space="preserve" width="800px" height="800px" fill="#000000">
<g id="SVGRepo_bgCarrier" stroke-width="0"/>
<g id="SVGRepo_tracerCarrier" stroke-linecap="round" stroke-linejoin="round"/>
<g id="SVGRepo_iconCarrier"> <rect x="77.076" y="65.734" style="fill:#D35B38;" width="61.308" height="98.626"/> <polygon style="fill:#F2F2F2;" points="462.556,472.918 49.429,472.918 49.429,181.969 255.992,55.649 462.556,181.969 "/> <path style="fill:#F28705;" d="M486.245,211.997c-2.762,0.001-5.559-0.736-8.087-2.284L255.992,73.854L33.827,209.715 c-7.318,4.475-16.878,2.17-21.353-5.148s-2.17-16.878,5.148-21.353L247.889,42.398c4.974-3.041,11.232-3.041,16.206,0 l230.268,140.816c7.319,4.474,9.623,14.035,5.148,21.353C496.582,209.356,491.475,211.997,486.245,211.997z"/> <rect x="61.967" y="39.084" style="fill:#D35B38;" width="91.518" height="26.661"/> <circle style="fill:#FFE6B8;" cx="255.99" cy="177.314" r="39.869"/> <rect x="204.219" y="314.503" style="fill:#F28705;" width="103.543" height="158.414"/> <polygon style="fill:#D35B38;" points="166.947,377.724 166.947,277.226 87.221,277.226 87.221,378.375 87.387,378.375 127.084,280.012 "/> <polygon style="fill:#FFE6B8;" points="166.947,377.724 127.084,280.012 87.387,378.375 166.947,378.375 "/> <polygon style="fill:#D35B38;" points="424.764,377.724 424.764,277.226 345.038,277.226 345.038,378.375 345.203,378.375 384.9,280.012 "/> <polygon style="fill:#FFE6B8;" points="424.764,377.724 384.9,280.012 345.203,378.375 424.764,378.375 "/> <g> <path style="fill:#4D3D36;" d="M462.555,483.117c5.632,0,10.199-4.566,10.199-10.199V218.365l0.083,0.051 c4.046,2.474,8.681,3.782,13.405,3.782c0.002,0,0.003,0,0.005,0c9.04,0,17.251-4.602,21.964-12.308 c3.586-5.864,4.673-12.771,3.063-19.453c-1.61-6.682-5.727-12.337-11.59-15.922L269.417,33.699 c-8.28-5.065-18.567-5.065-26.848-0.001l-93.987,57.476V75.938h4.906c5.633,0,10.199-4.566,10.199-10.199V39.083 c0-5.633-4.566-10.199-10.199-10.199h-91.52c-5.633,0-10.199,4.566-10.199,10.199v26.657c0,5.633,4.566,10.199,10.199,10.199h4.906 v65.202L12.3,174.513c-12.104,7.403-15.929,23.272-8.527,35.375c3.585,5.864,9.239,9.98,15.921,11.59 c2.017,0.486,4.054,0.726,6.077,0.726c4.679,0,9.283-1.286,13.377-3.789l0.082-0.05v254.552c0,5.633,4.566,10.199,10.199,10.199 H462.555z M72.167,49.282h71.121v6.258h-4.906h-61.31h-4.906V49.282z M87.272,75.938h40.911v27.709l-40.911,25.019V75.938z M214.421,462.719v-59.328h15.685c5.633,0,10.199-4.566,10.199-10.199c0-5.633-4.566-10.199-10.199-10.199h-15.685V324.7h83.142 v138.019H214.421z M452.356,462.719H317.961V314.501c0-5.633-4.567-10.199-10.199-10.199H204.222 c-5.633,0-10.199,4.566-10.199,10.199v148.217H59.628V205.892L255.992,85.809l196.364,120.082V462.719z M490.809,199.246 c-0.977,1.598-2.683,2.553-4.564,2.553c-0.001,0-0.001,0-0.002,0c-0.981,0-1.911-0.264-2.764-0.785L261.313,65.153 c-1.633-0.999-3.477-1.498-5.321-1.498s-3.688,0.5-5.321,1.498L28.507,201.014c-1.215,0.744-2.645,0.97-4.032,0.634 c-1.384-0.334-2.556-1.186-3.298-2.402c-1.534-2.508-0.741-5.796,1.767-7.33L253.211,51.101c1.717-1.049,3.846-1.049,5.563,0 l230.269,140.816c1.215,0.743,2.067,1.914,2.401,3.298C491.778,196.599,491.552,198.03,490.809,199.246z"/> <path style="fill:#4D3D36;" d="M205.931,177.31c0,27.604,22.458,50.062,50.062,50.062s50.062-22.458,50.062-50.062 s-22.458-50.062-50.062-50.062S205.931,149.704,205.931,177.31z M245.793,149.452v17.658h-17.658 C231.135,158.945,237.628,152.452,245.793,149.452z M228.135,187.509h17.658v17.658 C237.628,202.167,231.135,195.674,228.135,187.509z M266.192,205.167v-17.658h17.657 C280.85,195.674,274.357,202.167,266.192,205.167z M283.848,167.11h-17.657v-17.658C274.357,152.452,280.85,158.945,283.848,167.11 z"/> <path style="fill:#4D3D36;" d="M166.947,267.027H87.221c-5.633,0-10.199,4.566-10.199,10.199v101.149 c0,5.633,4.566,10.199,10.199,10.199h0.166h79.56c5.633,0,10.199-4.566,10.199-10.199v-0.651V277.225 C177.146,271.593,172.58,267.027,166.947,267.027z M156.748,325.723l-15.624-38.298h15.624V325.723z M127.135,307.138 l24.901,61.038h-49.535L127.135,307.138z M113.093,287.425L97.42,326.262v-38.837H113.093z"/> <path style="fill:#4D3D36;" d="M424.764,267.027h-79.726c-5.632,0-10.199,4.566-10.199,10.199v101.149 c0,5.633,4.567,10.199,10.199,10.199h0.166h79.56c5.632,0,10.199-4.566,10.199-10.199v-0.651V277.225 C434.963,271.593,430.396,267.027,424.764,267.027z M414.565,287.425v38.298l-15.624-38.298H414.565z M370.909,287.425 l-15.673,38.836v-38.836H370.909z M360.318,368.176l24.632-61.038l24.901,61.038H360.318z"/> <path style="fill:#4D3D36;" d="M368.75,195.399l53.842,32.571c1.65,0.999,3.471,1.474,5.269,1.474c3.452,0,6.82-1.753,8.737-4.922 c2.915-4.819,1.372-11.091-3.448-14.006l-53.842-32.571c-4.82-2.916-11.091-1.372-14.006,3.447 C362.387,186.211,363.93,192.484,368.75,195.399z"/> <path style="fill:#4D3D36;" d="M338.723,177.236l2.068,1.251c1.65,0.999,3.471,1.473,5.268,1.473c3.452,0,6.821-1.753,8.737-4.923 c2.915-4.82,1.371-11.091-3.449-14.006l-2.068-1.251c-4.821-2.915-11.092-1.369-14.005,3.449 C332.359,168.051,333.904,174.321,338.723,177.236z"/> </g> </g>
</svg>