<!DOCTYPE svg PUBLIC "-//W3C//DTD SVG 1.1//EN" "http://www.w3.org/Graphics/SVG/1.1/DTD/svg11.dtd">
<!-- Uploaded to: SVG Repo, www.svgrepo.com, Transformed by: SVG Repo Mixer Tools -->
<svg version="1.1" id="Layer_1" xmlns="http://www.w3.org/2000/svg" xmlns:xlink="http://www.w3.org/1999/xlink" viewBox="-51.2 -51.2 614.40 614.40" xml:space="preserve" width="800px" height="800px" fill="#000000">
<g id="SVGRepo_bgCarrier" stroke-width="0">
<rect x="-51.2" y="-51.2" width="614.40" height="614.40" rx="307.2" fill="#dde6e9" strokewidth="0"/>
</g>
<g id="SVGRepo_tracerCarrier" stroke-linecap="round" stroke-linejoin="round"/>
<g id="SVGRepo_iconCarrier"> <rect x="143.065" y="95.002" style="fill:#8BBE4D;" width="352.606" height="194.054"/> <rect x="318.851" y="95.002" style="fill:#5A9449;" width="176.831" height="194.054"/> <g> <circle style="fill:#528443;" cx="319.374" cy="192.029" r="67.751"/> <path style="fill:#528443;" d="M512,289.054V95.003c0-9.013-7.306-16.319-16.319-16.319h-352.61 c-9.013,0-16.319,7.306-16.319,16.319v194.051c0,9.013,7.306,16.319,16.319,16.319h352.61C504.694,305.374,512,298.067,512,289.054 z M159.39,223.296v-62.534c24.304-6.012,43.427-25.135,49.439-49.439h221.093c6.012,24.304,25.135,43.427,49.439,49.439v62.534 c-24.304,6.012-43.427,25.135-49.439,49.439H208.829C202.817,248.431,183.693,229.308,159.39,223.296z"/> </g> <g> <path style="fill:#366626;" d="M495.68,78.683H319.375v32.639h110.547c6.012,24.304,25.135,43.427,49.439,49.439v62.534 c-24.304,6.012-43.427,25.135-49.439,49.439H319.375v32.639H495.68c9.013,0,16.319-7.306,16.319-16.319V95.003 C512,85.99,504.694,78.683,495.68,78.683z"/> <path style="fill:#366626;" d="M319.376,124.278V259.78c37.418,0,67.751-30.333,67.751-67.751 C387.125,154.611,356.792,124.278,319.376,124.278z"/> </g> <rect x="80.928" y="159.264" style="fill:#8BBE4D;" width="352.606" height="194.054"/> <rect x="254.923" y="161.055" style="fill:#5A9449;" width="176.831" height="194.054"/> <g> <circle style="fill:#528443;" cx="255.445" cy="258.082" r="67.751"/> <path style="fill:#528443;" d="M448.067,355.104V161.053c0-9.013-7.306-16.319-16.319-16.319H79.138 c-9.013,0-16.319,7.306-16.319,16.319v194.051c0,9.013,7.306,16.319,16.319,16.319h352.61 C440.761,371.424,448.067,364.118,448.067,355.104z M95.458,289.345v-62.534c24.304-6.012,43.427-25.135,49.439-49.439H365.99 c6.012,24.304,25.135,43.427,49.439,49.439v62.534c-24.304,6.012-43.427,25.135-49.439,49.439H144.897 C138.884,314.482,119.761,295.358,95.458,289.345z"/> </g> <g> <path style="fill:#366626;" d="M431.748,144.734H255.443v32.639H365.99c6.012,24.304,25.135,43.427,49.439,49.439v62.534 c-24.304,6.012-43.427,25.135-49.439,49.439H255.443v32.639h176.305c9.013,0,16.319-7.306,16.319-16.319V161.053 C448.067,152.04,440.761,144.734,431.748,144.734z"/> <path style="fill:#366626;" d="M255.443,190.328V325.83c37.418,0,67.751-30.333,67.751-67.751 C323.194,220.661,292.861,190.328,255.443,190.328z"/> </g> <rect x="18.106" y="221.156" style="fill:#8BBE4D;" width="352.606" height="194.054"/> <rect x="192.096" y="222.947" style="fill:#5A9449;" width="176.831" height="194.054"/> <g> <circle style="fill:#528443;" cx="192.619" cy="319.974" r="67.751"/> <path style="fill:#528443;" d="M385.25,416.997V222.946c0-9.013-7.306-16.319-16.319-16.319H16.319 C7.306,206.626,0,213.933,0,222.946v194.051c0,9.013,7.306,16.319,16.319,16.319h352.61 C377.942,433.317,385.25,426.01,385.25,416.997z M32.639,351.238v-62.534c24.304-6.012,43.427-25.135,49.439-49.439h221.093 c6.012,24.304,25.135,43.427,49.439,49.439v62.534c-24.304,6.012-43.427,25.135-49.439,49.439H82.079 C76.066,376.374,56.942,357.251,32.639,351.238z"/> </g> <g> <path style="fill:#366626;" d="M368.929,206.626H192.624v32.639h110.547c6.012,24.304,25.135,43.427,49.439,49.439v62.534 c-24.304,6.012-43.427,25.135-49.439,49.439H192.624v32.639h176.305c9.013,0,16.319-7.306,16.319-16.319V222.946 C385.25,213.933,377.942,206.626,368.929,206.626z"/> <path style="fill:#366626;" d="M192.624,252.221v135.502c37.418,0,67.751-30.333,67.751-67.751S230.042,252.221,192.624,252.221z"/> </g> </g>
</svg>