<!DOCTYPE svg PUBLIC "-//W3C//DTD SVG 1.1//EN" "http://www.w3.org/Graphics/SVG/1.1/DTD/svg11.dtd">
<!-- Uploaded to: SVG Repo, www.svgrepo.com, Transformed by: SVG Repo Mixer Tools -->
<svg width="800px" height="800px" viewBox="0 0 256 256" xmlns="http://www.w3.org/2000/svg" fill="#000000">
<g id="SVGRepo_bgCarrier" stroke-width="0"/>
<g id="SVGRepo_tracerCarrier" stroke-linecap="round" stroke-linejoin="round"/>
<g id="SVGRepo_iconCarrier"> <defs> <style>.cls-1{fill:#52e355;}.cls-2{fill:#90fc95;}.cls-3{fill:#2fb1ea;}.cls-4{fill:#ffe76e;}.cls-5{fill:#ffffff;}.cls-6{fill:#d4ffd4;}.cls-7{fill:#ffbdbd;}.cls-8{fill:#bbf1ff;}.cls-9{fill:#fff4c5;}</style> </defs> <title>business economic finance interprise company money</title> <g id="Layer_2" data-name="Layer 2"> <path class="cls-1" d="M113.85,93.33C83.95,82.19,54,105.56,24.14,94.42V44.66C54,55.8,83.95,32.43,113.85,43.57Q113.85,68.45,113.85,93.33Z"/> <path class="cls-2" d="M107.95,85.83C79.22,79,54,100.09,24.14,89V44.66C54,55.8,78.71,35,107.95,41.54,107.95,58.13,107.95,69.25,107.95,85.83Z"/> <path class="cls-3" d="M42.28,99.51A53.26,53.26,0,0,1,23.44,96.3a2,2,0,0,1-1.3-1.87V44.66a2,2,0,0,1,2.7-1.87c14.42,5.37,28.67,2.45,43.76-.63s30.47-6.23,46-.46a2,2,0,0,1,1.3,1.87V93.33a2,2,0,0,1-2.7,1.87c-14.42-5.37-28.67-2.45-43.76.63C60.5,97.66,51.43,99.51,42.28,99.51ZM26.14,93c14,4.73,27.82,1.9,42.46-1.1C82.7,89,97.26,86.05,111.85,90.54V45c-14-4.73-27.82-1.9-42.46,1.1C55.29,49,40.73,51.94,26.14,47.45Z"/> <path class="cls-4" d="M104.74,59.39V72.71c-5-.81-9.11,3.41-9.11,8.42-17.76,0-35.51,7.26-53.27,7.28,0-5.06-4.08-9-9.11-9.81V65.28c5,.81,9.11-3.41,9.11-8.42,17.76,0,35.51-7.26,53.27-7.28C95.63,54.64,99.71,58.58,104.74,59.39Z"/> <path class="cls-3" d="M42.36,90.41a2,2,0,0,1-2-2c0-3.84-3.12-7.14-7.43-7.83a2,2,0,0,1-1.68-2V65.28a2,2,0,0,1,2.32-2A5.47,5.47,0,0,0,38,62.05a6.86,6.86,0,0,0,2.31-5.18,2,2,0,0,1,2-2C51,54.86,60,53,68.59,51.27c8.83-1.81,18-3.67,27-3.68h0a2,2,0,0,1,2,2c0,3.84,3.12,7.14,7.43,7.83a2,2,0,0,1,1.68,2V72.71a2,2,0,0,1-2.32,2,5.47,5.47,0,0,0-4.48,1.26,6.86,6.86,0,0,0-2.32,5.18,2,2,0,0,1-2,2C87,83.13,78,85,69.4,86.72c-8.83,1.81-18,3.67-27,3.68ZM35.25,77a12.34,12.34,0,0,1,8.92,9.38c8.1-.24,16.39-1.93,24.42-3.57,8.24-1.68,16.73-3.42,25.21-3.66a10.63,10.63,0,0,1,3.55-6.26,9.41,9.41,0,0,1,5.39-2.26V61a12.34,12.34,0,0,1-8.92-9.38c-8.1.24-16.39,1.93-24.42,3.57-8.24,1.68-16.73,3.42-25.21,3.66a10.63,10.63,0,0,1-3.55,6.26,9.41,9.41,0,0,1-5.39,2.26Z"/> <path class="cls-5" d="M78.25,67.18A11.88,11.88,0,0,1,69,78.25c-5.11,1.06-9.26-2.32-9.26-7.44A11.88,11.88,0,0,1,69,59.74C74.11,58.68,78.25,62.06,78.25,67.18Z"/> <path class="cls-3" d="M67.12,80.45a9.3,9.3,0,0,1-5.95-2.06,9.53,9.53,0,0,1-3.43-7.57,13.84,13.84,0,0,1,10.85-13,9.67,9.67,0,0,1,8.23,1.82,9.53,9.53,0,0,1,3.43,7.57h0a13.84,13.84,0,0,1-10.85,13A11.21,11.21,0,0,1,67.12,80.45Zm3.74-18.91a7.12,7.12,0,0,0-1.45.15,9.86,9.86,0,0,0-7.66,9.12,5.6,5.6,0,0,0,2,4.47,5.74,5.74,0,0,0,4.9,1,9.86,9.86,0,0,0,7.66-9.12h0a5.6,5.6,0,0,0-2-4.47A5.37,5.37,0,0,0,70.85,61.54Z"/> <path class="cls-1" d="M172.86,152.33C143,141.2,113,164.57,83.14,153.43V103.67c29.9,11.14,59.81-12.23,89.71-1.1Q172.86,127.45,172.86,152.33Z"/> <path class="cls-2" d="M167,144.84C138.22,138,113,159.1,83.14,148V103.67C113,114.8,137.71,94,167,100.55,167,117.13,167,128.25,167,144.84Z"/> <path class="cls-3" d="M101.29,158.52a53.26,53.26,0,0,1-18.84-3.21,2,2,0,0,1-1.3-1.87V103.67a2,2,0,0,1,2.7-1.87c14.42,5.37,28.67,2.45,43.76-.63s30.47-6.23,46-.46a2,2,0,0,1,1.3,1.87v49.76a2,2,0,0,1-2.7,1.87c-14.42-5.37-28.67-2.45-43.76.63C119.51,156.66,110.43,158.52,101.29,158.52ZM85.14,152c14,4.73,27.82,1.9,42.46-1.1,14.11-2.89,28.67-5.87,43.26-1.38V104c-14-4.73-27.82-1.9-42.46,1.1-14.11,2.89-28.67,5.86-43.26,1.38Z"/> <path class="cls-4" d="M163.75,118.4v13.32c-5-.81-9.11,3.41-9.11,8.42-17.76,0-35.51,7.26-53.27,7.28,0-5.06-4.08-9-9.11-9.81V124.29c5,.81,9.11-3.41,9.11-8.42,17.76,0,35.51-7.26,53.27-7.28C154.63,113.64,158.71,117.58,163.75,118.4Z"/> <path class="cls-3" d="M101.37,149.41a2,2,0,0,1-2-2c0-3.84-3.12-7.14-7.43-7.83a2,2,0,0,1-1.68-2V124.29a2,2,0,0,1,2.32-2,5.47,5.47,0,0,0,4.48-1.26,6.86,6.86,0,0,0,2.31-5.18,2,2,0,0,1,2-2c8.68,0,17.6-1.84,26.24-3.6,8.83-1.81,18-3.67,27-3.68h0a2,2,0,0,1,2,2c0,3.84,3.12,7.14,7.43,7.83a2,2,0,0,1,1.68,2v13.32a2,2,0,0,1-2.32,2,5.47,5.47,0,0,0-4.48,1.26,6.86,6.86,0,0,0-2.32,5.18,2,2,0,0,1-2,2c-8.68,0-17.6,1.84-26.24,3.6-8.83,1.81-18,3.67-27,3.68ZM94.25,136a12.34,12.34,0,0,1,8.92,9.38c8.1-.24,16.39-1.93,24.42-3.57,8.24-1.68,16.73-3.42,25.21-3.66a10.63,10.63,0,0,1,3.55-6.26,9.41,9.41,0,0,1,5.39-2.26V120a12.34,12.34,0,0,1-8.92-9.38c-8.1.24-16.39,1.93-24.42,3.57-8.24,1.68-16.73,3.42-25.21,3.66a10.63,10.63,0,0,1-3.55,6.26,9.41,9.41,0,0,1-5.39,2.26Z"/> <path class="cls-5" d="M137.26,126.18A11.88,11.88,0,0,1,128,137.26c-5.11,1.06-9.26-2.32-9.26-7.44A11.88,11.88,0,0,1,128,118.74C133.11,117.68,137.26,121.06,137.26,126.18Z"/> <path class="cls-3" d="M126.12,139.45a9.3,9.3,0,0,1-5.95-2.06,9.53,9.53,0,0,1-3.43-7.57,13.84,13.84,0,0,1,10.85-13,9.67,9.67,0,0,1,8.23,1.82,9.53,9.53,0,0,1,3.43,7.57h0a13.84,13.84,0,0,1-10.85,13A11.21,11.21,0,0,1,126.12,139.45Zm3.74-18.91a7.12,7.12,0,0,0-1.45.15,9.86,9.86,0,0,0-7.66,9.12,5.6,5.6,0,0,0,2,4.47,5.74,5.74,0,0,0,4.9,1,9.86,9.86,0,0,0,7.66-9.12h0a5.6,5.6,0,0,0-2-4.47A5.37,5.37,0,0,0,129.86,120.55Z"/> <path class="cls-1" d="M231.86,211.34c-29.9-11.14-59.81,12.23-89.71,1.1V162.67c29.9,11.14,59.81-12.23,89.71-1.1Q231.86,186.46,231.86,211.34Z"/> <path class="cls-2" d="M226,203.84C197.23,197,172.05,218.1,142.15,207V162.67c29.9,11.14,54.57-9.67,83.81-3.12C226,176.14,226,187.26,226,203.84Z"/> <path class="cls-3" d="M160.29,217.52a53.26,53.26,0,0,1-18.84-3.21,2,2,0,0,1-1.3-1.87V162.67a2,2,0,0,1,2.7-1.87c14.42,5.37,28.67,2.45,43.76-.63s30.47-6.23,46-.46a2,2,0,0,1,1.3,1.87v49.76a2,2,0,0,1-2.7,1.87c-14.42-5.37-28.67-2.45-43.76.63C178.51,215.66,169.44,217.52,160.29,217.52ZM144.15,211c14,4.73,27.82,1.9,42.46-1.1,14.11-2.89,28.67-5.87,43.26-1.38V163c-14-4.73-27.82-1.9-42.46,1.1-14.11,2.89-28.67,5.86-43.26,1.38Z"/> <path class="cls-4" d="M222.75,177.4v13.32c-5-.81-9.11,3.41-9.11,8.42-17.76,0-35.51,7.26-53.27,7.28,0-5.06-4.08-9-9.11-9.81V183.29c5,.81,9.11-3.41,9.11-8.42,17.76,0,35.51-7.26,53.27-7.28C213.64,172.65,217.72,176.59,222.75,177.4Z"/> <path class="cls-3" d="M160.37,208.42a2,2,0,0,1-2-2c0-3.84-3.12-7.14-7.43-7.83a2,2,0,0,1-1.68-2V183.29a2,2,0,0,1,2.32-2,5.47,5.47,0,0,0,4.48-1.26,6.86,6.86,0,0,0,2.31-5.18,2,2,0,0,1,2-2c8.68,0,17.6-1.84,26.24-3.6,8.83-1.81,18-3.67,27-3.68h0a2,2,0,0,1,2,2c0,3.84,3.12,7.14,7.43,7.83a2,2,0,0,1,1.68,2v13.32a2,2,0,0,1-2.32,2,5.47,5.47,0,0,0-4.48,1.26,6.86,6.86,0,0,0-2.32,5.18,2,2,0,0,1-2,2c-8.68,0-17.6,1.84-26.24,3.6-8.83,1.81-18,3.67-27,3.68ZM153.26,195a12.34,12.34,0,0,1,8.92,9.38c8.1-.24,16.39-1.93,24.42-3.57,8.24-1.68,16.73-3.42,25.21-3.66a10.63,10.63,0,0,1,3.55-6.26,9.41,9.41,0,0,1,5.39-2.26V179a12.34,12.34,0,0,1-8.92-9.38c-8.1.24-16.39,1.93-24.42,3.57-8.24,1.68-16.73,3.42-25.21,3.66a10.63,10.63,0,0,1-3.55,6.26,9.41,9.41,0,0,1-5.39,2.26Z"/> <path class="cls-5" d="M196.26,185.19A11.88,11.88,0,0,1,187,196.26c-5.11,1.06-9.26-2.32-9.26-7.44A11.88,11.88,0,0,1,187,177.75C192.12,176.68,196.26,180.07,196.26,185.19Z"/> <path class="cls-3" d="M185.13,198.46a9.3,9.3,0,0,1-5.95-2.06,9.53,9.53,0,0,1-3.43-7.57,13.84,13.84,0,0,1,10.85-13,9.67,9.67,0,0,1,8.23,1.82,9.53,9.53,0,0,1,3.43,7.57h0a13.84,13.84,0,0,1-10.85,13A11.21,11.21,0,0,1,185.13,198.46Zm3.74-18.91a7.12,7.12,0,0,0-1.45.15,9.86,9.86,0,0,0-7.66,9.12,5.6,5.6,0,0,0,2,4.47,5.74,5.74,0,0,0,4.9,1,9.86,9.86,0,0,0,7.66-9.12h0a5.6,5.6,0,0,0-2-4.47A5.37,5.37,0,0,0,188.86,179.55Z"/> <circle class="cls-6" cx="15" cy="57.5" r="5"/> <circle class="cls-6" cx="135" cy="68.5" r="4"/> <circle class="cls-6" cx="196" cy="147.5" r="3"/> <circle class="cls-6" cx="184" cy="59.5" r="2"/> <circle class="cls-6" cx="41" cy="120.5" r="1"/> <circle class="cls-7" cx="217" cy="139.5" r="5"/> <circle class="cls-7" cx="71" cy="133.5" r="4"/> <circle class="cls-7" cx="55" cy="200.5" r="3"/> <circle class="cls-7" cx="190" cy="100.5" r="2"/> <circle class="cls-7" cx="240" cy="150.25" r="1"/> <circle class="cls-8" cx="128" cy="195.5" r="5"/> <circle class="cls-8" cx="207" cy="112.5" r="4"/> <circle class="cls-8" cx="5" cy="94.25" r="3"/> <circle class="cls-8" cx="53" cy="149.5" r="2"/> <circle class="cls-8" cx="41" cy="171.5" r="1"/> <circle class="cls-9" cx="249" cy="197.25" r="5"/> <circle class="cls-9" cx="11" cy="123.25" r="4"/> <circle class="cls-9" cx="74" cy="179.5" r="3"/> <circle class="cls-9" cx="114" cy="175.5" r="2"/> <circle class="cls-9" cx="172" cy="72.5" r="1"/> </g> </g>
</svg>