<!DOCTYPE svg PUBLIC "-//W3C//DTD SVG 1.1//EN" "http://www.w3.org/Graphics/SVG/1.1/DTD/svg11.dtd">
<!-- Uploaded to: SVG Repo, www.svgrepo.com, Transformed by: SVG Repo Mixer Tools -->
<svg fill="#ffffff" height="800px" width="800px" version="1.1" id="Layer_1" xmlns="http://www.w3.org/2000/svg" xmlns:xlink="http://www.w3.org/1999/xlink" viewBox="0 0 501.991 501.991" xml:space="preserve" stroke="#ffffff">
<g id="SVGRepo_bgCarrier" stroke-width="0"/>
<g id="SVGRepo_tracerCarrier" stroke-linecap="round" stroke-linejoin="round"/>
<g id="SVGRepo_iconCarrier"> <g> <g> <path d="M82.791,174.087c-10.384-6.948-38.812-30.092-42.312-50.088c16.792,2.36,34.46-3.112,42.74-14.224 c7.236-9.708,6.68-22.012-1.496-32.908c-7.888-10.524-21.468-14.484-34.624-10.108c-7.88,2.628-16.048,8.48-22.016,18.056 c-0.96-3.44-1.288-7.428-0.988-11.948c0.444-6.612-4.56-12.332-11.172-12.772c-6.668-0.46-12.332,4.568-12.772,11.176 c-1.192,17.9,4.712,32.884,16.2,42.408c-0.148,2.06-0.228,4.188-0.228,6.392c0,37.344,47.884,70.344,53.344,73.984 c2.044,1.364,4.356,2.016,6.64,2.016c3.876,0,7.676-1.872,9.992-5.344C89.779,185.223,88.295,177.771,82.791,174.087z M54.687,89.531c1.576-0.524,5.48-1.4,7.836,1.74c2.288,3.052,1.66,3.896,1.452,4.172c-2.488,3.34-11.104,6.1-19.996,4.844 C46.871,94.219,50.955,90.779,54.687,89.531z"/> </g> </g> <g> <g> <path d="M250.123,112.807c-22.008,0-42.964,3.536-62,9.932l119.992-1.296C290.159,115.871,270.595,112.807,250.123,112.807z"/> </g> </g> <g> <g> <path d="M311.675,109.983c-19.612-6.088-40.32-9.176-61.548-9.176c-22.824,0-44.968,3.556-65.824,10.56 c-6.28,2.108-9.664,8.912-7.552,15.196c1.684,5.012,6.36,8.18,11.372,8.18c1.268,0,2.556-0.204,3.828-0.628 c18.384-6.176,37.96-9.308,58.176-9.308c18.812,0,37.128,2.724,54.436,8.096c6.32,1.96,13.052-1.572,15.016-7.904 C321.543,118.671,318.003,111.947,311.675,109.983z"/> </g> </g> <g> <g> <circle cx="382.111" cy="204.731" r="18"/> </g> </g> <g> <g> <path d="M256.743,224.751c-12.456-4.552-20.62-7.896-20.62-12.68c0-7.964,5.384-12,16-12c11.804,0,21.104,5.836,21.408,6.028 c5.508,3.62,12.912,2.12,16.576-3.372c3.676-5.512,2.184-12.964-3.328-16.64c-1.536-1.024-15.572-10.016-34.656-10.016 c-23.924,0-40,14.468-40,36c0,21.92,21.028,29.608,36.38,35.22c17.432,6.372,23.62,9.864,23.62,16.78c0,7.848-5.532,12-16,12 c-14.456,0-23.244-8.228-23.516-8.484c-4.684-4.688-12.284-4.688-16.968,0c-4.688,4.684-4.688,12.284,0,16.968 c1.588,1.592,16.216,15.516,40.484,15.516c27.632,0,40-18.08,40-36C296.123,239.147,273.363,230.827,256.743,224.751z"/> </g> </g> <g> <g> <path d="M253.991,158.739c-2.208,0-4,1.792-4,4v152c0,2.208,1.792,4,4,4s4-1.792,4-4v-152 C257.991,160.531,256.199,158.739,253.991,158.739z"/> </g> </g> <g> <g> <path d="M343.567,367.083c-1.628-4.112-6.28-6.124-10.38-4.504c-27.16,10.724-56.452,16.16-87.064,16.16c-4.416,0-8,3.584-8,8 c0,4.416,3.584,8,8,8c32.632,0,63.904-5.812,92.94-17.276C343.171,375.839,345.191,371.191,343.567,367.083z"/> </g> </g> <g> <g> <path d="M166.791,363.195c-21.524-7.584-40.948-18.092-57.732-31.232c-3.48-2.724-8.508-2.112-11.232,1.368 s-2.112,8.508,1.368,11.232c18.156,14.22,39.108,25.564,62.276,33.724c0.88,0.308,1.776,0.456,2.66,0.456 c3.3,0,6.388-2.06,7.548-5.344C173.147,369.231,170.959,364.663,166.791,363.195z"/> </g> </g> <g> <g> <path d="M473.991,198.731h-11.748c-6.816-29.236-22.876-56.368-46.948-79.244l3.304-52c0.276-4.384-1.864-8.572-5.588-10.916 c-3.724-2.336-8.424-2.456-12.26-0.308l-43.46,24.38c-33.144-15.272-70.784-23.32-109.296-23.32 c-120.204,0-218,77.772-218,173.368c0,49.296,25.948,95.66,71.544,128.496l-4.592,11.956c-5.364,13.964-4.972,29.18,1.112,42.848 c6.08,13.668,17.12,24.148,31.084,29.508c13.956,5.364,29.176,4.972,42.844-1.112c13.664-6.084,24.144-17.12,29.508-31.084 l4.496-12.572c27.124,4.256,56.568,4.08,84,0l2.104,12.576c5.36,13.964,15.84,25,29.508,31.084 c7.284,3.24,15.008,4.868,22.748,4.868c6.784,0,13.58-1.248,20.1-3.756c13.964-5.364,25-15.844,31.084-29.512 c6.08-13.668,6.476-28.884,1.112-42.848l-4.08-10.62c18.136-12.756,33.5-28.992,45.424-45.792h36c15.44,0,28-11.228,28-26.668 v-61.332C501.991,211.291,489.431,198.731,473.991,198.731z M477.995,288.063c0,2.204-1.8,2.668-4.004,2.668h-44 c-4.052,0-6.372,3.376-8.588,6.772c-12.2,18.684-28.996,34.924-49.92,48.268c-4.812,3.068-6.796,9.096-4.752,14.42l7.512,19.56 c3.064,7.984,2.84,16.676-0.636,24.488c-3.472,7.808-9.78,13.796-17.76,16.86c-7.976,3.068-16.672,2.84-24.484-0.636 c-7.808-3.472-13.796-9.78-16.864-17.76l-7.436-19.364c-1.804-4.704-6.308-7.7-11.196-7.7c-0.732,0-1.468,0.068-2.208,0.212 c-30.9,5.752-63.04,5.568-93.472-0.388c-5.712-1.104-11.416,2.036-13.504,7.476l-7.592,19.768 c-3.064,7.976-9.052,14.284-16.864,17.76c-7.812,3.472-16.508,3.696-24.484,0.636c-7.976-3.064-14.284-9.052-17.76-16.86 c-3.472-7.812-3.7-16.508-0.636-24.488l7.988-20.792c2.032-5.276,0.096-11.256-4.636-14.348 c-43.664-28.532-68.704-70.052-68.704-113.916c0-82.36,87.028-149.368,194-149.368c37.092,0,73.204,8.16,104.424,23.588 c3.552,1.76,7.736,1.644,11.188-0.292l29.64-16.628l-2.264,35.68c-0.232,3.672,1.232,7.252,3.98,9.704 c25.18,22.516,40.936,49.908,45.556,79.22c0.92,5.836,7.564,10.128,13.472,10.128h20c2.204,0,4.004,1.8,4.004,4.004V288.063z"/> </g> </g> </g>
</svg>