<!DOCTYPE svg PUBLIC "-//W3C//DTD SVG 1.1//EN" "http://www.w3.org/Graphics/SVG/1.1/DTD/svg11.dtd">
<!-- Uploaded to: SVG Repo, www.svgrepo.com, Transformed by: SVG Repo Mixer Tools -->
<svg width="64px" height="64px" viewBox="-6.4 -6.4 76.80 76.80" xmlns="http://www.w3.org/2000/svg" stroke-width="3" stroke="#000000" fill="none">
<g id="SVGRepo_bgCarrier" stroke-width="0">
<rect x="-6.4" y="-6.4" width="76.80" height="76.80" rx="38.4" fill="#ffffff" strokewidth="0"/>
</g>
<g id="SVGRepo_tracerCarrier" stroke-linecap="round" stroke-linejoin="round"/>
<g id="SVGRepo_iconCarrier">
<path d="M15.68,52.27,8.27,41.12a1.2,1.2,0,0,1,.34-1.67l4.68-3a1.21,1.21,0,0,1,1.64.32l7.56,11a1.2,1.2,0,0,1-.32,1.67L17.35,52.6A1.2,1.2,0,0,1,15.68,52.27Z" stroke-linecap="round"/>
<path d="M15.76,37.9l7.8-4.9a2.17,2.17,0,0,1,1.7-.27c2.77.71,11.1,3,14.17,4.08,2.31.81,3.24,3.09,2.31,4.59-1.26,2-3.18,1.81-4.56,1.42l-.55-.2-5.46-2.33" stroke-linecap="round"/>
<path d="M21.81,46.75l2.55-1.46,14.43,4a1.06,1.06,0,0,0,.88-.14c2-1.3,10.71-7.06,15-10.09a2.4,2.4,0,0,0,.3-4,3.1,3.1,0,0,0-3.71-.33c-1.5.84-5.67,3.94-5.67,3.94" stroke-linecap="round"/>
<path d="M44.12,14.44a6,6,0,0,0-5.6-3.61c-5.05,0-5.24,3.61-5.24,3.61s-.76,4.46,5.42,4.93c6.43.49,5.42,4.93,5.42,4.93s-.65,3.86-5.42,4.1-6.24-4.76-6.24-4.76"/>
<line x1="38.52" y1="7.62" x2="38.52" y2="32.1"/>
</g>
</svg>