<!DOCTYPE svg PUBLIC "-//W3C//DTD SVG 1.1//EN" "http://www.w3.org/Graphics/SVG/1.1/DTD/svg11.dtd">
<!-- Uploaded to: SVG Repo, www.svgrepo.com, Transformed by: SVG Repo Mixer Tools -->
<svg version="1.1" id="Layer_1" xmlns="http://www.w3.org/2000/svg" xmlns:xlink="http://www.w3.org/1999/xlink" viewBox="0 0 508 508" xml:space="preserve" width="800px" height="800px" fill="#000000">
<g id="SVGRepo_bgCarrier" stroke-width="0"/>
<g id="SVGRepo_tracerCarrier" stroke-linecap="round" stroke-linejoin="round"/>
<g id="SVGRepo_iconCarrier"> <circle style="fill:#F28705;" cx="254" cy="254" r="254"/> <path style="fill:#FFFFFF;" d="M362.8,427.2H145.2c-11.2,0-20.4-9.2-20.4-20.4V117.6c0-11.2,9.2-20.4,20.4-20.4h217.2 c11.2,0,20.4,9.2,20.4,20.4v289.6C383.2,418.4,374,427.2,362.8,427.2z"/> <path style="fill:#02735e;" d="M323.6,82.4H280c0-14-11.2-25.6-25.6-25.6c-14,0-25.6,11.2-25.6,25.6h-44.4c-6,0-11.2,4.8-11.2,11.2 v29.2h161.2V93.6C334.8,87.6,329.6,82.4,323.6,82.4z M254.4,95.2c-7.2,0-12.8-5.6-12.8-12.8c0-7.2,5.6-12.8,12.8-12.8 c7.2,0,12.8,5.6,12.8,12.8C267.2,89.6,261.6,95.2,254.4,95.2z"/> <g> <rect x="159.2" y="225.6" style="fill:#E6E9EE;" width="190" height="9.6"/> <rect x="159.2" y="256.8" style="fill:#E6E9EE;" width="190" height="9.6"/> <rect x="159.2" y="287.6" style="fill:#E6E9EE;" width="190" height="9.6"/> <rect x="159.2" y="318.4" style="fill:#E6E9EE;" width="190" height="9.6"/> <rect x="159.2" y="349.2" style="fill:#E6E9EE;" width="190" height="9.6"/> <rect x="159.2" y="380.4" style="fill:#E6E9EE;" width="77.6" height="9.6"/> </g> <g> <path style="fill:#025959;" d="M180.4,196.4h-13.6v-35.2c0-2-1.6-4-4-4s-4,1.6-4,4V200c0,2,1.6,4,4,4h17.6c2,0,4-1.6,4-4 C184.4,198,182.4,196.4,180.4,196.4z"/> <path style="fill:#025959;" d="M220,157.2c-12.4,0-22.4,10.4-22.4,23.2s10,23.2,22.4,23.2s22.4-10.4,22.4-23.2 C242.4,168,232.4,157.2,220,157.2z M220,196.4c-8,0-14.4-6.8-14.4-15.6s6.4-15.6,14.4-15.6s14.8,6.8,14.8,15.6 C234.8,189.2,228,196.4,220,196.4z"/> <path style="fill:#025959;" d="M345.2,157.2c-2,0-4,1.6-4,4V188l-20-28.8c-0.8-1.2-2-1.6-3.2-1.6c-2.4,0-4,2-4,4v38.8 c0,2,1.6,4,4,4c2,0,4-1.6,4-4v-26.8l20,28.8c0.8,1.2,2,1.6,3.2,1.6c2,0,4-2,4-4v-38.8C348.8,159.2,347.2,157.2,345.2,157.2z"/> <path style="fill:#025959;" d="M279.6,160c-0.4-1.6-2-2.4-3.6-2.4s-3.2,1.2-3.6,2.4l-14.8,38.8c-0.8,2,0.4,4.4,2.4,5.2 c0.4,0,3.6,1.2,5.2-2.4l3.6-9.2h15.6l3.6,9.2c0.8,2,3.2,3.2,5.2,2.4s3.2-3.2,2.4-5.2L279.6,160z M271.2,184.4l4.8-12l4.8,12H271.2z "/> </g> </g>
</svg>