<?xml version="1.0" encoding="iso-8859-1"?>
<!-- Uploaded to: SVG Repo, www.svgrepo.com, Generator: SVG Repo Mixer Tools -->
<svg height="800px" width="800px" version="1.1" id="Layer_1" xmlns="http://www.w3.org/2000/svg" xmlns:xlink="http://www.w3.org/1999/xlink" 
	 viewBox="0 0 511.999 511.999" xml:space="preserve">
<path style="fill:#A3DDDC;" d="M330.393,227.907c-7.059-8.142-72.625-42.878-95.499-49.359c-2.1-0.595-4.179,1.001-4.179,3.184
	v13.004c0,1.353,0.825,2.567,2.081,3.068c9.384,3.733,47.686,19.41,56.786,30.102L330.393,227.907L330.393,227.907z"/>
<path style="opacity:0.2;fill:#FFFFFF;enable-background:new    ;" d="M243.606,181.543c2.088,13.109,13.44,23.129,27.136,23.129
	c5.197,0,10.056-1.444,14.201-3.95C270.194,193.13,254.805,185.864,243.606,181.543z"/>
<path style="fill:#272F37;" d="M157.715,229.793l8.913-30.166c1.558-5.275,6.594-8.74,12.077-8.309l0,0
	c6.059,0.475,10.734,5.53,10.734,11.609v25.166L157.715,229.793z"/>
<path style="fill:#DE2A4E;" d="M9.297,293.186L9.297,293.186c14.051,9.787,30.764,15.034,47.889,15.034H450.11
	c8.553,0,17.093-0.688,25.535-2.057l28.274-4.586c4.658-0.756,8.08-4.778,8.08-9.496v-18.523c0-5.62-2.986-10.817-7.842-13.646
	l-15.923-9.28c-29.139-16.983-62.263-25.931-95.99-25.931H288.007h-96.28c-5.149,0-10.27-0.749-15.202-2.223l-28.755-8.592
	c-16.559-4.948-34.237-4.699-50.65,0.714l0,0c-5.686,1.875-11.636,2.831-17.624,2.831H39.543c-27.203,0-39.162,22.684-39.162,41.351
	l-0.375,16.094C-0.164,282.149,3.325,289.026,9.297,293.186z"/>
<path style="fill:#FF496A;" d="M282.561,233.725l-28.516,1.789c-3.279,0.205-6.113-2.264-6.36-5.54l-0.744-9.903
	c-0.309-4.117,3.534-7.309,7.524-6.249l28.757,7.637c1.908,0.507,3.285,2.166,3.432,4.133l0.237,3.159
	C287.087,231.326,285.139,233.563,282.561,233.725z"/>
<path style="opacity:0.1;enable-background:new    ;" d="M90.745,240.115c-27.962,0-50.629,22.668-50.629,50.63
	c0,5.673,0.947,11.121,2.668,16.214c4.734,0.827,9.55,1.262,14.402,1.262h81.09c2.004-5.447,3.099-11.333,3.099-17.476
	C141.373,262.783,118.707,240.115,90.745,240.115z"/>
<circle style="fill:#272F37;" cx="90.749" cy="290.746" r="42.83"/>
<circle style="fill:#C7C9C9;" cx="90.749" cy="290.746" r="19.235"/>
<path style="opacity:0.1;enable-background:new    ;" d="M369.736,249.675l-13.575,12.558c-2.334,2.158-5.509,3.159-8.659,2.729
	l-117.221-16.015c-0.926-0.127-0.847-1.49,0.087-1.509l137.359-2.748C370.369,244.637,371.676,247.88,369.736,249.675z"/>
<path style="opacity:0.2;enable-background:new    ;" d="M489.463,286.351l-13.819,19.813l28.274-4.586
	c2.868-0.465,5.264-2.171,6.684-4.512l-12.754-11.649C495.345,283.131,491.402,283.57,489.463,286.351z"/>
<path style="opacity:0.2;enable-background:new    ;" d="M178,251.637h-21.868c-4.524,0-8.19-3.667-8.19-8.19
	c0-4.523,3.666-8.19,8.19-8.19H178c4.524,0,8.19,3.667,8.19,8.19C186.19,247.97,182.524,251.637,178,251.637z"/>
<path style="fill:#A3DDDC;" d="M488.234,250.632c-12.92-7.53-26.625-13.472-40.817-17.762l19.428,26.685
	c2.745,3.772,7.678,5.236,12.037,3.574l18.617-7.097L488.234,250.632z"/>
<g>
	<path style="opacity:0.2;fill:#FFFFFF;enable-background:new    ;" d="M413.128,225.872c11.837,12.689,28.695,20.632,47.416,20.632
		c5.596,0,11.025-0.709,16.205-2.041C456.774,234.583,435.238,228.309,413.128,225.872z"/>
	<path style="opacity:0.2;fill:#FFFFFF;enable-background:new    ;" d="M504.157,259.912l-12.532-7.305
		c-0.288,1.33-0.449,2.708-0.449,4.125c0,10.728,8.697,19.427,19.427,19.427c0.472,0,0.934-0.037,1.397-0.07v-2.529
		C511.999,267.939,509.013,262.741,504.157,259.912z"/>
	<path style="opacity:0.2;fill:#FFFFFF;enable-background:new    ;" d="M147.77,213.885c-12.058-3.604-24.709-4.437-37.034-2.541
		c6.545,9.973,17.818,16.563,30.636,16.563c9.098,0,17.415-3.324,23.82-8.815L147.77,213.885z"/>
</g>
<path style="opacity:0.1;enable-background:new    ;" d="M411.012,240.115c-27.962,0-50.63,22.668-50.63,50.63
	c0,6.143,1.095,12.029,3.099,17.476h86.628c2.842,0,5.681-0.083,8.516-0.235c1.949-5.382,3.016-11.187,3.016-17.241
	C461.641,262.783,438.973,240.115,411.012,240.115z"/>
<circle style="fill:#272F37;" cx="411.015" cy="290.746" r="42.83"/>
<circle style="fill:#C7C9C9;" cx="411.015" cy="290.746" r="19.235"/>
<path style="opacity:0.1;enable-background:new    ;" d="M300.728,296.508H175.252c-4.524,0-8.19-3.667-8.19-8.19
	c0-4.523,3.666-8.19,8.19-8.19h125.476c4.524,0,8.19,3.667,8.19,8.19C308.918,292.841,305.252,296.508,300.728,296.508z"/>
</svg>