<!DOCTYPE svg PUBLIC "-//W3C//DTD SVG 1.1//EN" "http://www.w3.org/Graphics/SVG/1.1/DTD/svg11.dtd">
<!-- Uploaded to: SVG Repo, www.svgrepo.com, Transformed by: SVG Repo Mixer Tools -->
<svg fill="#000000" width="800px" height="800px" viewBox="0 0 24 24" id="update" data-name="Flat Color" xmlns="http://www.w3.org/2000/svg" class="icon flat-color">
<g id="SVGRepo_bgCarrier" stroke-width="0"/>
<g id="SVGRepo_tracerCarrier" stroke-linecap="round" stroke-linejoin="round"/>
<g id="SVGRepo_iconCarrier">
<path id="primary" d="M19,2a1,1,0,0,0-1,1V5.33A9,9,0,0,0,3,12a1,1,0,0,0,2,0A7,7,0,0,1,16.86,7H14a1,1,0,0,0,0,2h5a1,1,0,0,0,1-1V3A1,1,0,0,0,19,2Z" style="fill: #02735e;"/>
<path id="secondary" d="M20,11a1,1,0,0,0-1,1A7,7,0,0,1,7.11,17H10a1,1,0,0,0,0-2H5a1,1,0,0,0-1,1v5a1,1,0,0,0,2,0V18.67A9,9,0,0,0,21,12,1,1,0,0,0,20,11Z" style="fill: #F28705;"/>
</g>
</svg>